PathFileType	4	(X/Y/Z)	Run_500 02
DataRate	CameraRate	NumFrames	NumMarkers	Units	OrigDataRate	OrigDataStartFrame	OrigNumFrames
120	120	7	42	mm	120	6	128
Frame#	Time	LASI			RASI			LPSI			RPSI			RTH1			RTH2			RTH3			LTH1			LTH2			LTH3			RTB1			RTB2			LTB1			LTB2			LTB3			RCAL			RTOE			RMT5			LCAL			LTOE			LMT5			LACR			RACR			CLAV			C7			RUA1			RUA2			RUA3			RLEL			RMEL			LUA1			LUA2			LUA3			LLEL			LMEL			RFAsuperior			RFAradius			RFAulna			LFAsuperior			LFAradius			LFAulna			RTB3			
		X1	Y1	Z1	X2	Y2	Z2	X3	Y3	Z3	X4	Y4	Z4	X5	Y5	Z5	X6	Y6	Z6	X7	Y7	Z7	X8	Y8	Z8	X9	Y9	Z9	X10	Y10	Z10	X11	Y11	Z11	X12	Y12	Z12	X13	Y13	Z13	X14	Y14	Z14	X15	Y15	Z15	X16	Y16	Z16	X17	Y17	Z17	X18	Y18	Z18	X19	Y19	Z19	X20	Y20	Z20	X21	Y21	Z21	X22	Y22	Z22	X23	Y23	Z23	X24	Y24	Z24	X25	Y25	Z25	X26	Y26	Z26	X27	Y27	Z27	X28	Y28	Z28	X29	Y29	Z29	X30	Y30	Z30	X31	Y31	Z31	X32	Y32	Z32	X33	Y33	Z33	X34	Y34	Z34	X35	Y35	Z35	X36	Y36	Z36	X37	Y37	Z37	X38	Y38	Z38	X39	Y39	Z39	X40	Y40	Z40	X41	Y41	Z41	X42	Y42	Z42	

1	0.166667	964.70928	1067.8012	-781.58037	949.670526	1076.04705	-530.062634	786.769423	1122.950705	-696.060561	779.797189	1113.021582	-611.52034	923.628209	901.02426	-465.958425	1018.307698	818.636016	-470.27715	1008.832523	697.140573	-516.1796900000001	825.445292	869.212642	-825.3304429999999	816.940469	734.589095	-804.733007	706.066714	665.109908	-780.795424	1197.150039	456.879809	-594.82538	1189.546541	386.028619	-528.388209	561.686095	489.359713	-711.24295	465.350954	507.177849	-753.054789	360.000959	466.569907	-682.996041	1179.951334	115.559984	-627.334283	1409.517627	169.624515	-630.39162	1354.718517	99.58494899999999	-555.234202	227.563542	552.795475	-650.944842	200.577385	320.344216	-658.143222	166.712187	398.684794	-733.6623959999999	1005.318042	1549.034488	-794.997526	903.181883	1555.293104	-475.189376	987.632841	1496.564433	-587.472931	884.789273	1579.588256	-658.31537	817.505116	1500.652476	-418.91438	770.386976	1422.737799	-423.239446	703.91713	1464.407852	-443.649575	590.64378	1376.478085	-415.789558	603.241169	1360.192812	-495.239761	1010.704771	1459.753302	-868.80133	1018.837469	1390.058376	-862.8516519999999	925.838129	1379.309175	-898.950335	944.2052200000001	1216.282634	-954.041252	872.468485	1205.300738	-900.020589	655.294754	1301.308106	-374.208792	785.601718	1171.827764	-392.654114	734.679076	1151.135696	-347.108268	1021.84978	1229.416596	-890.964418	1095.940633	1278.020631	-734.241441	1119.712746	1209.372596	-748.551141	1235.949356	296.570288	-599.606098	
2	0.175	964.4460319999999	1064.002708	-780.576098	946.775619	1074.716509	-530.1519479999999	785.274614	1116.917749	-697.365008	777.32595	1109.036014	-612.909846	918.9626490000001	899.050536	-465.483832	1015.311935	819.236613	-470.663804	1005.400443	695.428407	-516.866911	831.38096	861.4380609999999	-824.69402	826.87417	726.420136	-804.583489	718.4751690000001	653.9283339999999	-782.121386	1187.17482	449.537147	-595.785211	1177.341081	378.651598	-530.198666	573.320527	487.583373	-710.788212	478.763424	511.498077	-753.123323	370.209044	481.388786	-683.099921	1157.32759	109.856473	-630.352728	1388.393323	154.680643	-634.860982	1331.9278	84.772623	-560.571536	246.440561	578.16122	-651.1733850000001	198.703843	349.537522	-659.996316	173.737084	430.614308	-735.568659	1005.018222	1544.510952	-794.7625399999999	905.435662	1549.484905	-474.525792	988.0794	1491.4773	-587.8426480000001	885.019497	1575.33756	-657.201073	820.8100020000001	1493.505677	-416.666476	775.194361	1414.521841	-419.426745	707.517296	1454.453146	-438.049609	596.858709	1364.197746	-407.300384	608.03599	1347.720988	-487.096243	1007.385933	1456.563193	-869.999961	1014.783395	1386.914528	-865.55198	920.920891	1377.59736	-899.095729	935.903283	1214.528281	-955.895592	864.1700949999999	1204.825695	-901.32764	663.769628	1290.300819	-366.658909	796.94226	1164.092251	-386.653403	747.089802	1142.776752	-340.181964	1014.202969	1223.669236	-893.224443	1091.995529	1265.202642	-735.8411139999999	1113.115653	1196.350356	-752.649451	1220.103062	287.936208	-602.0443739999999	
3	0.183333	963.975419	1058.873794	-780.1148889999999	943.862272	1072.187212	-529.119389	783.543903	1109.310228	-698.855146	774.590211	1103.595591	-614.525652	914.588701	897.54655	-466.217021	1013.355108	819.848758	-472.832616	1001.084271	692.777844	-517.30076	836.610734	852.842405	-824.089582	837.1350210000001	717.802555	-804.6927020000001	731.580571	642.311791	-783.800535	1175.708348	440.961436	-596.67329	1162.68377	370.230921	-531.757996	586.69248	485.121297	-711.003126	494.169132	514.932688	-753.684393	383.587557	494.576147	-683.94579	1130.149832	105.206983	-633.055268	1362.39019	136.32443	-641.263502	1303.64145	70.12249799999999	-565.596041	268.837494	600.500322	-651.871378	202.084171	376.959116	-662.380054	185.262995	460.022937	-737.79276	1004.762205	1538.932018	-794.6301549999999	907.791741	1542.675495	-473.736142	988.628969	1485.387714	-587.993204	884.988842	1570.190397	-656.105159	824.3913669999999	1485.280034	-414.161778	780.402726	1405.31007	-415.130334	711.627553	1443.494824	-431.887801	603.782568	1350.79272	-397.940251	613.313215	1334.10626	-477.991265	1003.939638	1452.497147	-871.309341	1010.564086	1382.725017	-868.126499	916.20016	1374.879599	-899.457678	927.298274	1212.074132	-957.956821	855.619436	1203.658814	-902.779726	673.241913	1278.637714	-358.493998	809.342029	1155.692337	-380.812135	760.953302	1133.953364	-332.861679	1006.189106	1216.979816	-896.009283	1087.602579	1250.94199	-738.167332	1105.807302	1182.045533	-757.449528	1201.514537	278.02873	-604.252874	
4	0.191667	963.270772	1052.535065	-780.384139	941.022962	1068.562665	-527.225992	781.531528	1100.501226	-700.527563	771.7255249999999	1096.730071	-616.395723	910.8678169999999	895.529701	-467.647787	1011.580849	818.823876	-476.524957	995.733469	688.699598	-517.081275	841.374531	843.534772	-823.440334	847.627773	708.92746	-805.018329	745.126881	630.5183489999999	-785.511013	1162.929289	431.53647	-597.904544	1146.074419	360.959201	-533.698608	601.628763	481.698028	-711.975671	511.415464	517.471732	-754.74935	399.770169	505.929148	-685.2864499999999	1099.018818	102.095729	-636.243567	1332.082464	116.536263	-648.952055	1270.433817	58.256052	-569.332582	293.414115	619.752393	-652.816115	210.819275	401.681714	-665.419539	200.821695	486.247956	-740.417132	1004.523801	1532.423142	-794.755481	910.256354	1534.94446	-472.786019	989.36468	1478.322073	-587.894893	884.70132	1564.314496	-654.941071	828.163862	1476.016038	-411.401701	785.989957	1395.052085	-410.502792	716.141397	1431.575359	-425.236804	611.509371	1336.337055	-387.772898	619.033108	1319.42338	-467.986092	1000.627204	1447.388522	-872.693657	1006.272388	1377.362137	-870.434165	911.559588	1371.206753	-900.041644	918.4783660000001	1208.957224	-960.165515	847.061652	1201.750806	-904.3712420000001	683.796782	1266.39863	-349.788908	822.648022	1146.67567	-375.499281	776.2415140000001	1124.707167	-325.401275	997.93245	1209.407189	-899.200912	1082.822872	1235.354083	-741.28614	1097.790744	1166.516811	-762.760438	1180.440855	267.359291	-606.985505	
5	0.2	962.24944	1045.230918	-780.852072	938.116522	1064.085001	-524.979017	779.108659	1091.088321	-702.254961	768.609228	1088.721198	-618.485554	907.649929	892.165222	-468.858912	1008.858955	815.409032	-480.14163	989.630864	683.453132	-516.615827	846.127466	833.6459180000001	-822.703357	858.202222	699.911535	-805.572948	758.914662	618.691088	-786.735231	1149.145741	422.245828	-600.235744	1128.671239	351.647099	-537.016825	618.104729	477.289664	-713.500621	530.458322	519.005401	-756.213328	418.451024	515.316818	-686.903584	1064.462916	100.519164	-640.514642	1298.078052	98.476466	-656.980106	1233.437128	50.997793	-571.7221469999999	319.351792	636.02263	-653.882043	224.607417	423.086711	-669.060076	220.046299	508.837413	-743.432564	1004.282086	1525.144764	-795.237042	912.840151	1526.465482	-471.711919	990.356085	1470.345075	-587.633481	884.1901350000001	1557.943883	-653.642454	832.113221	1465.728366	-408.324164	791.941759	1383.729305	-405.726405	720.946164	1418.656085	-418.154595	620.12869	1320.915366	-376.904432	625.239968	1303.716966	-457.175667	997.599405	1441.117635	-874.158989	1001.927371	1370.792596	-872.4481510000001	906.915223	1366.681068	-900.859677	909.480812	1205.203988	-962.474243	838.561222	1199.154612	-906.087084	695.4425189999999	1253.571416	-340.640447	836.852652	1137.218098	-370.712304	792.881725	1115.046014	-318.073245	989.554611	1201.032988	-902.743593	1077.686986	1218.537548	-745.210234	1089.091629	1149.862586	-768.490509	1156.986258	257.080385	-611.4191060000001	
6	0.208333	960.745118	1037.283021	-780.620266	934.793626	1058.977749	-522.811873	776.109313	1081.7449	-703.835385	764.8847009999999	1080.12304	-620.649947	904.306228	887.4148740000001	-469.056118	1004.246705	809.852924	-481.633696	983.162674	677.822794	-516.670115	851.216901	823.491958	-821.858099	868.643839	690.945604	-806.309375	772.9187010000001	606.910388	-786.984695	1134.632633	414.453918	-604.230093	1111.65489	343.747489	-542.162908	636.274444	472.189594	-715.141424	551.307369	519.341246	-757.850497	439.414225	522.640728	-688.679655	1027.239675	100.296997	-645.73092	1261.195808	84.990081	-664.285901	1194.107317	48.472346	-573.470642	346.450645	649.369284	-655.126445	242.780509	440.871887	-673.052691	242.614006	527.478268	-746.745864	1003.969365	1517.326462	-796.131427	915.45201	1517.624379	-470.554299	991.580665	1461.724465	-587.4167169999999	883.5405960000001	1551.389425	-652.183827	836.349076	1454.358852	-404.796926	798.278287	1371.432095	-400.926026	726.011082	1404.6273	-410.611635	629.723745	1304.607388	-365.497767	632.105719	1286.995325	-445.687298	994.850935	1433.668907	-875.729752	997.450772	1363.109927	-874.1936439999999	902.230185	1361.433314	-901.915419	900.290423	1200.875853	-964.857938	830.037956	1196.017432	-907.87436	708.141466	1240.086856	-331.181861	852.042782	1127.552237	-366.195456	810.781351	1104.98569	-311.10015	981.070917	1191.911121	-906.698624	1072.103726	1200.563755	-749.848909	1079.709213	1132.201466	-774.63228	1131.451383	248.875784	-617.986688	
7	0.216667	958.542377	1029.067528	-779.143187	930.721888	1053.477376	-520.868769	772.435756	1073.107985	-705.130075	760.258186	1071.704445	-622.704267	900.056608	882.047768	-468.141411	997.396335	803.074716	-480.098796	976.502519	672.612765	-517.663527	856.642546	813.695377	-820.90353	878.828628	682.431928	-807.054635	787.3633599999999	595.33529	-786.099815	1119.446858	409.151325	-609.624549	1095.273634	338.628523	-548.339704	656.408109	466.877501	-716.43429	573.974424	518.3162139999999	-759.398264	462.523414	527.856106	-690.5409979999999	988.386806	101.221272	-651.02701	1222.466323	77.02025	-670.004649	1153.755534	49.118407	-575.310562	374.75022	659.76252	-656.74798	264.506545	454.91211	-677.025368	268.136061	541.906698	-750.2481299999999	1003.409059	1509.301732	-797.467169	917.829395	1509.010641	-469.312207	992.8804709999999	1453.01962	-587.485335	882.897823	1545.016513	-650.5844980000001	841.0875590000001	1441.909662	-400.728201	805.106887	1358.443377	-396.127087	731.485687	1389.457017	-402.464293	640.423452	1287.506175	-353.753493	639.930868	1269.279317	-433.667791	992.231728	1425.196953	-877.393092	992.68583	1354.565738	-875.689945	897.483705	1355.650081	-903.20601	890.886497	1196.13125	-967.287101	821.427363	1192.529723	-909.639396	721.930277	1225.913786	-321.591471	868.3100889999999	1117.869484	-361.726484	829.87438	1094.625039	-304.608216	972.2888809999999	1182.04864	-911.14319	1065.84245	1181.528846	-755.012968	1069.593098	1113.679693	-781.1793259999999	1104.52481	244.044913	-625.581991	
